<svg width="96" height="19" viewBox="0 0 96 19" fill="none" xmlns="http://www.w3.org/2000/svg">
<path d="M14.3984 18H10.8828L4.03906 6.77344V18H0.523438V0.9375H4.03906L10.8945 12.1875V0.9375H14.3984V18ZM23.082 18.2344C21.2227 18.2344 19.707 17.6641 18.5352 16.5234C17.3711 15.3828 16.7891 13.8633 16.7891 11.9648V11.6367C16.7891 10.3633 17.0352 9.22656 17.5273 8.22656C18.0195 7.21875 18.7148 6.44531 19.6133 5.90625C20.5195 5.35938 21.5508 5.08594 22.707 5.08594C24.4414 5.08594 25.8047 5.63281 26.7969 6.72656C27.7969 7.82031 28.2969 9.37109 28.2969 11.3789V12.7617H20.2227C20.332 13.5898 20.6602 14.2539 21.207 14.7539C21.7617 15.2539 22.4609 15.5039 23.3047 15.5039C24.6094 15.5039 25.6289 15.0312 26.3633 14.0859L28.0273 15.9492C27.5195 16.668 26.832 17.2305 25.9648 17.6367C25.0977 18.0352 24.1367 18.2344 23.082 18.2344ZM22.6953 7.82812C22.0234 7.82812 21.4766 8.05469 21.0547 8.50781C20.6406 8.96094 20.375 9.60938 20.2578 10.4531H24.9688V10.1836C24.9531 9.43359 24.75 8.85547 24.3594 8.44922C23.9688 8.03516 23.4141 7.82812 22.6953 7.82812ZM41.2578 13.3945L42.9219 5.32031H46.1914L42.957 18H40.1211L37.7188 10.0195L35.3164 18H32.4922L29.2578 5.32031H32.5273L34.1797 13.3828L36.5 5.32031H38.9492L41.2578 13.3945ZM61.4961 12.3164C61.3633 14.1523 60.6836 15.5977 59.457 16.6523C58.2383 17.707 56.6289 18.2344 54.6289 18.2344C52.4414 18.2344 50.7188 17.5 49.4609 16.0312C48.2109 14.5547 47.5859 12.5312 47.5859 9.96094V8.91797C47.5859 7.27734 47.875 5.83203 48.4531 4.58203C49.0312 3.33203 49.8555 2.375 50.9258 1.71094C52.0039 1.03906 53.2539 0.703125 54.6758 0.703125C56.6445 0.703125 58.2305 1.23047 59.4336 2.28516C60.6367 3.33984 61.332 4.82031 61.5195 6.72656H58.0039C57.918 5.625 57.6094 4.82812 57.0781 4.33594C56.5547 3.83594 55.7539 3.58594 54.6758 3.58594C53.5039 3.58594 52.625 4.00781 52.0391 4.85156C51.4609 5.6875 51.1641 6.98828 51.1484 8.75391V10.043C51.1484 11.8867 51.4258 13.2344 51.9805 14.0859C52.543 14.9375 53.4258 15.3633 54.6289 15.3633C55.7148 15.3633 56.5234 15.1172 57.0547 14.625C57.5938 14.125 57.9023 13.3555 57.9805 12.3164H61.4961ZM70.9297 18C70.7734 17.6953 70.6602 17.3164 70.5898 16.8633C69.7695 17.7773 68.7031 18.2344 67.3906 18.2344C66.1484 18.2344 65.1172 17.875 64.2969 17.1562C63.4844 16.4375 63.0781 15.5312 63.0781 14.4375C63.0781 13.0938 63.5742 12.0625 64.5664 11.3438C65.5664 10.625 67.0078 10.2617 68.8906 10.2539H70.4492V9.52734C70.4492 8.94141 70.2969 8.47266 69.9922 8.12109C69.6953 7.76953 69.2227 7.59375 68.5742 7.59375C68.0039 7.59375 67.5547 7.73047 67.2266 8.00391C66.9062 8.27734 66.7461 8.65234 66.7461 9.12891H63.3594C63.3594 8.39453 63.5859 7.71484 64.0391 7.08984C64.4922 6.46484 65.1328 5.97656 65.9609 5.625C66.7891 5.26562 67.7188 5.08594 68.75 5.08594C70.3125 5.08594 71.5508 5.48047 72.4648 6.26953C73.3867 7.05078 73.8477 8.15234 73.8477 9.57422V15.0703C73.8555 16.2734 74.0234 17.1836 74.3516 17.8008V18H70.9297ZM68.1289 15.6445C68.6289 15.6445 69.0898 15.5352 69.5117 15.3164C69.9336 15.0898 70.2461 14.7891 70.4492 14.4141V12.2344H69.1836C67.4883 12.2344 66.5859 12.8203 66.4766 13.9922L66.4648 14.1914C66.4648 14.6133 66.6133 14.9609 66.9102 15.2344C67.207 15.5078 67.6133 15.6445 68.1289 15.6445ZM83.3164 14.4961C83.3164 14.082 83.1094 13.7578 82.6953 13.5234C82.2891 13.2812 81.6328 13.0664 80.7266 12.8789C77.7109 12.2461 76.2031 10.9648 76.2031 9.03516C76.2031 7.91016 76.668 6.97266 77.5977 6.22266C78.5352 5.46484 79.7578 5.08594 81.2656 5.08594C82.875 5.08594 84.1602 5.46484 85.1211 6.22266C86.0898 6.98047 86.5742 7.96484 86.5742 9.17578H83.1875C83.1875 8.69141 83.0312 8.29297 82.7188 7.98047C82.4062 7.66016 81.918 7.5 81.2539 7.5C80.6836 7.5 80.2422 7.62891 79.9297 7.88672C79.6172 8.14453 79.4609 8.47266 79.4609 8.87109C79.4609 9.24609 79.6367 9.55078 79.9883 9.78516C80.3477 10.0117 80.9492 10.2109 81.793 10.3828C82.6367 10.5469 83.3477 10.7344 83.9258 10.9453C85.7148 11.6016 86.6094 12.7383 86.6094 14.3555C86.6094 15.5117 86.1133 16.4492 85.1211 17.168C84.1289 17.8789 82.8477 18.2344 81.2773 18.2344C80.2148 18.2344 79.2695 18.0469 78.4414 17.6719C77.6211 17.2891 76.9766 16.7695 76.5078 16.1133C76.0391 15.4492 75.8047 14.7344 75.8047 13.9688H79.0156C79.0469 14.5703 79.2695 15.0312 79.6836 15.3516C80.0977 15.6719 80.6523 15.832 81.3477 15.832C81.9961 15.832 82.4844 15.7109 82.8125 15.4688C83.1484 15.2188 83.3164 14.8945 83.3164 14.4961ZM92.8555 2.20312V5.32031H95.0234V7.80469H92.8555V14.1328C92.8555 14.6016 92.9453 14.9375 93.125 15.1406C93.3047 15.3438 93.6484 15.4453 94.1562 15.4453C94.5312 15.4453 94.8633 15.418 95.1523 15.3633V17.9297C94.4883 18.1328 93.8047 18.2344 93.1016 18.2344C90.7266 18.2344 89.5156 17.0352 89.4688 14.6367V7.80469H87.6172V5.32031H89.4688V2.20312H92.8555Z" fill="black"/>
</svg>
