<svg width="102" height="31" viewBox="0 0 102 31" fill="none" xmlns="http://www.w3.org/2000/svg">
<path d="M24.9473 30H18.7949L6.81836 10.3535V30H0.666016V0.140625H6.81836L18.8154 19.8281V0.140625H24.9473V30ZM40.1436 30.4102C36.8896 30.4102 34.2373 29.4121 32.1865 27.416C30.1494 25.4199 29.1309 22.7607 29.1309 19.4385V18.8643C29.1309 16.6357 29.5615 14.6465 30.4229 12.8965C31.2842 11.1328 32.501 9.7793 34.0732 8.83594C35.6592 7.87891 37.4639 7.40039 39.4873 7.40039C42.5225 7.40039 44.9082 8.35742 46.6445 10.2715C48.3945 12.1855 49.2695 14.8994 49.2695 18.4131V20.833H35.1396C35.3311 22.2822 35.9053 23.4443 36.8623 24.3193C37.833 25.1943 39.0566 25.6318 40.5332 25.6318C42.8164 25.6318 44.6006 24.8047 45.8857 23.1504L48.7979 26.4111C47.9092 27.6689 46.7061 28.6533 45.1885 29.3643C43.6709 30.0615 41.9893 30.4102 40.1436 30.4102ZM39.4668 12.1992C38.291 12.1992 37.334 12.5957 36.5957 13.3887C35.8711 14.1816 35.4062 15.3164 35.2012 16.793H43.4453V16.3213C43.418 15.0088 43.0625 13.9971 42.3789 13.2861C41.6953 12.5615 40.7246 12.1992 39.4668 12.1992ZM71.9512 21.9404L74.8633 7.81055H80.585L74.9248 30H69.9619L65.7578 16.0342L61.5537 30H56.6113L50.9512 7.81055H56.6729L59.5645 21.9199L63.625 7.81055H67.9111L71.9512 21.9404ZM95.5557 23.8682C95.5557 23.1436 95.1934 22.5762 94.4688 22.166C93.7578 21.7422 92.6094 21.3662 91.0234 21.0381C85.7461 19.9307 83.1074 17.6885 83.1074 14.3115C83.1074 12.3428 83.9209 10.7021 85.5479 9.38965C87.1885 8.06348 89.3281 7.40039 91.9668 7.40039C94.7832 7.40039 97.0322 8.06348 98.7139 9.38965C100.409 10.7158 101.257 12.4385 101.257 14.5576H95.3301C95.3301 13.71 95.0566 13.0127 94.5098 12.4658C93.9629 11.9053 93.1084 11.625 91.9463 11.625C90.9482 11.625 90.1758 11.8506 89.6289 12.3018C89.082 12.7529 88.8086 13.3271 88.8086 14.0244C88.8086 14.6807 89.1162 15.2139 89.7314 15.624C90.3604 16.0205 91.4131 16.3691 92.8896 16.6699C94.3662 16.957 95.6104 17.2852 96.6221 17.6543C99.7529 18.8027 101.318 20.792 101.318 23.6221C101.318 25.6455 100.45 27.2861 98.7139 28.5439C96.9775 29.7881 94.7354 30.4102 91.9873 30.4102C90.1279 30.4102 88.4736 30.082 87.0244 29.4258C85.5889 28.7559 84.4609 27.8467 83.6406 26.6982C82.8203 25.5361 82.4102 24.2852 82.4102 22.9453H88.0293C88.084 23.998 88.4736 24.8047 89.1982 25.3652C89.9229 25.9258 90.8936 26.2061 92.1104 26.2061C93.2451 26.2061 94.0996 25.9941 94.6738 25.5703C95.2617 25.1328 95.5557 24.5654 95.5557 23.8682Z" fill="black"/>
</svg>
